<mxfile host="app.diagrams.net" agent="Mozilla/5.0 (X11; Linux x86_64) AppleWebKit/537.36 (KHTML, like Gecko) Chrome/129.0.0.0 Safari/537.36" version="24.8.6">
  <diagram name="Pagina-1" id="2KZim4WSaV08ftVSFKLo">
    <mxGraphModel dx="1434" dy="754" grid="1" gridSize="10" guides="1" tooltips="1" connect="1" arrows="1" fold="1" page="1" pageScale="1" pageWidth="827" pageHeight="1169" math="0" shadow="0">
      <root>
        <mxCell id="0" />
        <mxCell id="1" parent="0" />
        <mxCell id="BLetJNWocYn2-W4ZQuNb-19" value="" style="whiteSpace=wrap;html=1;aspect=fixed;" parent="1" vertex="1">
          <mxGeometry x="160" y="720" width="460" height="460" as="geometry" />
        </mxCell>
        <mxCell id="BLetJNWocYn2-W4ZQuNb-20" value="CONNECTION MANAGER" style="text;html=1;align=center;verticalAlign=middle;resizable=0;points=[];autosize=1;strokeColor=none;fillColor=none;" parent="1" vertex="1">
          <mxGeometry x="305" y="690" width="170" height="30" as="geometry" />
        </mxCell>
        <mxCell id="BLetJNWocYn2-W4ZQuNb-21" value="OUTBOUND&lt;div&gt;GOVERNOR&lt;/div&gt;" style="rounded=1;whiteSpace=wrap;html=1;" parent="1" vertex="1">
          <mxGeometry x="180" y="750" width="110" height="240" as="geometry" />
        </mxCell>
        <mxCell id="BLetJNWocYn2-W4ZQuNb-23" value="OUROBOROS&lt;div&gt;MINIPROTOCOLS&lt;/div&gt;" style="shape=trapezoid;perimeter=trapezoidPerimeter;whiteSpace=wrap;html=1;fixedSize=1;" parent="1" vertex="1">
          <mxGeometry x="290" y="1200" width="200" height="70" as="geometry" />
        </mxCell>
        <mxCell id="BLetJNWocYn2-W4ZQuNb-24" value="INBOUND&lt;div&gt;GOVERNOR&lt;/div&gt;" style="rounded=1;whiteSpace=wrap;html=1;" parent="1" vertex="1">
          <mxGeometry x="490" y="750" width="110" height="240" as="geometry" />
        </mxCell>
        <mxCell id="BLetJNWocYn2-W4ZQuNb-25" value="" style="endArrow=classic;startArrow=classic;html=1;rounded=0;exitX=0.25;exitY=0;exitDx=0;exitDy=0;entryX=0.75;entryY=1;entryDx=0;entryDy=0;dashed=1;" parent="1" source="BLetJNWocYn2-W4ZQuNb-23" target="BLetJNWocYn2-W4ZQuNb-21" edge="1">
          <mxGeometry width="50" height="50" relative="1" as="geometry">
            <mxPoint x="390" y="920" as="sourcePoint" />
            <mxPoint x="440" y="870" as="targetPoint" />
          </mxGeometry>
        </mxCell>
        <mxCell id="BLetJNWocYn2-W4ZQuNb-36" value="protocols&lt;div&gt;usage&lt;/div&gt;" style="edgeLabel;html=1;align=center;verticalAlign=middle;resizable=0;points=[];" parent="BLetJNWocYn2-W4ZQuNb-25" vertex="1" connectable="0">
          <mxGeometry x="0.1221" y="-1" relative="1" as="geometry">
            <mxPoint y="1" as="offset" />
          </mxGeometry>
        </mxCell>
        <mxCell id="BLetJNWocYn2-W4ZQuNb-26" value="" style="endArrow=classic;startArrow=classic;html=1;rounded=0;exitX=0.75;exitY=0;exitDx=0;exitDy=0;entryX=0.25;entryY=1;entryDx=0;entryDy=0;dashed=1;" parent="1" source="BLetJNWocYn2-W4ZQuNb-23" target="BLetJNWocYn2-W4ZQuNb-24" edge="1">
          <mxGeometry width="50" height="50" relative="1" as="geometry">
            <mxPoint x="350" y="1090" as="sourcePoint" />
            <mxPoint x="253" y="1000" as="targetPoint" />
          </mxGeometry>
        </mxCell>
        <mxCell id="BLetJNWocYn2-W4ZQuNb-35" value="protocols&lt;div&gt;usage&lt;/div&gt;" style="edgeLabel;html=1;align=center;verticalAlign=middle;resizable=0;points=[];" parent="BLetJNWocYn2-W4ZQuNb-26" vertex="1" connectable="0">
          <mxGeometry x="0.0992" y="2" relative="1" as="geometry">
            <mxPoint as="offset" />
          </mxGeometry>
        </mxCell>
        <mxCell id="BLetJNWocYn2-W4ZQuNb-27" value="" style="endArrow=classic;html=1;rounded=0;exitX=1;exitY=0.5;exitDx=0;exitDy=0;entryX=0;entryY=0.5;entryDx=0;entryDy=0;" parent="1" edge="1">
          <mxGeometry width="50" height="50" relative="1" as="geometry">
            <mxPoint x="290" y="815" as="sourcePoint" />
            <mxPoint x="490" y="815" as="targetPoint" />
            <Array as="points">
              <mxPoint x="390" y="840" />
            </Array>
          </mxGeometry>
        </mxCell>
        <mxCell id="BLetJNWocYn2-W4ZQuNb-28" value="" style="endArrow=classic;html=1;rounded=0;exitX=1;exitY=0.5;exitDx=0;exitDy=0;entryX=0;entryY=0.5;entryDx=0;entryDy=0;" parent="1" edge="1">
          <mxGeometry width="50" height="50" relative="1" as="geometry">
            <mxPoint x="490" y="925" as="sourcePoint" />
            <mxPoint x="290" y="925" as="targetPoint" />
            <Array as="points">
              <mxPoint x="390" y="900" />
            </Array>
          </mxGeometry>
        </mxCell>
        <mxCell id="BLetJNWocYn2-W4ZQuNb-30" value="" style="endArrow=classic;html=1;rounded=0;entryX=0;entryY=0.25;entryDx=0;entryDy=0;" parent="1" edge="1">
          <mxGeometry width="50" height="50" relative="1" as="geometry">
            <mxPoint x="20" y="790" as="sourcePoint" />
            <mxPoint x="180" y="835" as="targetPoint" />
            <Array as="points">
              <mxPoint x="90" y="790" />
            </Array>
          </mxGeometry>
        </mxCell>
        <mxCell id="BLetJNWocYn2-W4ZQuNb-31" value="other peers&amp;nbsp;&lt;div&gt;requests&lt;/div&gt;" style="text;html=1;align=center;verticalAlign=middle;resizable=0;points=[];autosize=1;strokeColor=none;fillColor=none;" parent="1" vertex="1">
          <mxGeometry x="10" y="790" width="90" height="40" as="geometry" />
        </mxCell>
        <mxCell id="BLetJNWocYn2-W4ZQuNb-32" value="" style="endArrow=classic;html=1;rounded=0;entryX=0;entryY=0.696;entryDx=0;entryDy=0;entryPerimeter=0;exitX=0;exitY=0.75;exitDx=0;exitDy=0;" parent="1" edge="1">
          <mxGeometry width="50" height="50" relative="1" as="geometry">
            <mxPoint x="180" y="925" as="sourcePoint" />
            <mxPoint x="20" y="965" as="targetPoint" />
            <Array as="points">
              <mxPoint x="90" y="965" />
            </Array>
          </mxGeometry>
        </mxCell>
        <mxCell id="BLetJNWocYn2-W4ZQuNb-33" value="responses to&amp;nbsp;&lt;div&gt;other peers&lt;/div&gt;" style="text;html=1;align=center;verticalAlign=middle;resizable=0;points=[];autosize=1;strokeColor=none;fillColor=none;" parent="1" vertex="1">
          <mxGeometry x="10" y="925" width="100" height="40" as="geometry" />
        </mxCell>
        <mxCell id="BLetJNWocYn2-W4ZQuNb-34" value="CONNECTIONS" style="rounded=1;whiteSpace=wrap;html=1;" parent="1" vertex="1">
          <mxGeometry x="330" y="840" width="120" height="60" as="geometry" />
        </mxCell>
      </root>
    </mxGraphModel>
  </diagram>
</mxfile>
